<svg xmlns="http://www.w3.org/2000/svg" width="195" height="195"><path d="M97.5 0A97.5 97.5 0 1 1 0 97.5 97.5 97.5 0 0 1 97.5 0z" fill="#f1f1f1"/><ellipse cx="73.125" cy="73.125" rx="73.125" ry="73.125" transform="translate(24.375 24.375)" fill="#d2d2d2"/><path d="M63.836 142.67c10.786 0 19.563-8.536 19.563-19.028V80.901c0-10.49-8.777-19.028-19.563-19.028s-19.564 8.538-19.564 19.028v42.741c0 10.492 8.773 19.028 19.564 19.028zm0 0" fill="#fff"/><path d="M95.284 111.02h-3.9a2.24 2.24 0 0 0-2.268 2.206v7.751c0 13.559-11.34 24.588-25.281 24.588s-25.286-11.029-25.286-24.588v-7.751a2.237 2.237 0 0 0-2.268-2.206h-3.887a2.241 2.241 0 0 0-2.27 2.206v7.751c0 16.213 12.956 30.5 29.5 32.522v5.49h-17.4a2.238 2.238 0 0 0-2.264 2.207v3.789a2.233 2.233 0 0 0 2.264 2.2h43.225a2.236 2.236 0 0 0 2.268-2.2v-3.789a2.241 2.241 0 0 0-2.268-2.207h-17.4v-5.49c16.541-2.024 29.5-16.309 29.5-32.522v-7.751a2.236 2.236 0 0 0-2.264-2.206zm0 0" fill="#666"/><path d="M57.504 89.991H44.275v-4.9h13.229a2.177 2.177 0 0 1 2.2 2.148v.6a2.177 2.177 0 0 1-2.2 2.152zm0 8.59H44.275v-4.9h13.229a2.177 2.177 0 0 1 2.2 2.148v.6a2.177 2.177 0 0 1-2.2 2.152zm0 8.591H44.275v-4.9h13.229a2.177 2.177 0 0 1 2.2 2.148v.6a2.177 2.177 0 0 1-2.2 2.152zm12.669-4.905h13.229v4.9H70.173a2.177 2.177 0 0 1-2.2-2.148v-.6a2.177 2.177 0 0 1 2.2-2.152zm0-8.586h13.229v4.9H70.173a2.177 2.177 0 0 1-2.2-2.148v-.6a2.177 2.177 0 0 1 2.2-2.152zm0-8.586h13.229v4.9H70.173a2.177 2.177 0 0 1-2.2-2.148v-.6a2.177 2.177 0 0 1 2.2-2.152z" fill="#ccc"/><path d="M105.988 50.488v17.6h13.044l16.31 14.667V35.821l-16.31 14.667zm44.042 8.793a12.718 12.718 0 0 0-8.155-11.73v23.46a12.7 12.7 0 0 0 8.155-11.73z" fill="#ec407a"/><path d="M141.874 33.471v6.16c9.46 2.633 16.31 10.267 16.31 19.65s-6.85 17.017-16.31 19.65v6.16c13.044-2.636 22.822-13.193 22.822-25.81s-9.778-23.174-22.822-25.81z" fill="#ec407a"/></svg>