<svg xmlns="http://www.w3.org/2000/svg" width="250" height="250"><path d="M125 0A125 125 0 1 1 0 125 125 125 0 0 1 125 0z" fill="#f1f1f1"/><ellipse cx="93.75" cy="93.75" rx="93.75" ry="93.75" transform="translate(31.25 31.25)" fill="#d2d2d2"/><path d="M81.843 182.911c13.828 0 25.081-10.944 25.081-24.394v-54.8c0-13.449-11.252-24.394-25.081-24.394S56.76 90.269 56.76 103.717v54.8c0 13.451 11.247 24.394 25.083 24.394zm0 0" fill="#fff"/><path d="M122.16 142.334h-4.995a2.872 2.872 0 0 0-2.908 2.832v9.937c0 17.383-14.538 31.523-32.411 31.523s-32.419-14.139-32.419-31.523v-9.937a2.868 2.868 0 0 0-2.908-2.828h-4.988a2.873 2.873 0 0 0-2.91 2.828v9.937c0 20.786 16.611 39.1 37.817 41.695v7.038H54.131a2.869 2.869 0 0 0-2.9 2.83v4.858a2.863 2.863 0 0 0 2.9 2.821h55.422a2.867 2.867 0 0 0 2.908-2.821v-4.858a2.873 2.873 0 0 0-2.908-2.83H87.246v-7.038c21.206-2.6 37.817-20.909 37.817-41.695v-9.937a2.866 2.866 0 0 0-2.9-2.828zm0 0" fill="#666"/><path d="M73.723 115.373h-16.96v-6.282h16.96a2.791 2.791 0 0 1 2.827 2.753v.775a2.791 2.791 0 0 1-2.827 2.754zm0 11.013h-16.96v-6.282h16.96a2.791 2.791 0 0 1 2.827 2.753v.775a2.791 2.791 0 0 1-2.827 2.754zm0 11.013h-16.96v-6.282h16.96a2.791 2.791 0 0 1 2.827 2.753v.775a2.791 2.791 0 0 1-2.827 2.754zm16.243-6.288h16.96v6.282h-16.96a2.791 2.791 0 0 1-2.827-2.753v-.775a2.791 2.791 0 0 1 2.827-2.754zm0-11.007h16.96v6.282h-16.96a2.791 2.791 0 0 1-2.827-2.753v-.775a2.791 2.791 0 0 1 2.827-2.754zm0-11.007h16.96v6.282h-16.96a2.791 2.791 0 0 1-2.827-2.753v-.775a2.791 2.791 0 0 1 2.827-2.754z" fill="#ccc"/><path d="M135.882 64.728v22.564h16.723l20.91 18.8V45.924l-20.91 18.8zm56.463 11.273c0-6.755-4.187-12.415-10.455-15.038v30.076c6.267-2.623 10.455-8.264 10.455-15.038z" fill="#ec407a"/><path d="M181.89 42.911v7.9c12.128 3.375 20.911 13.162 20.911 25.192 0 12.048-8.782 21.817-20.911 25.192v7.9c16.723-3.38 29.259-16.914 29.259-33.09 0-16.157-12.535-29.71-29.259-33.09z" fill="#ec407a"/></svg>