<svg xmlns="http://www.w3.org/2000/svg" width="245" height="279"><g transform="translate(-138.936 -463)"><path d="M269.37 736.442H159.116A18.442 18.442 0 0 1 140.676 718V481.445A18.442 18.442 0 0 1 159.116 463H269.37a18.442 18.442 0 0 1 18.439 18.445V718a18.442 18.442 0 0 1-18.439 18.442z" fill="#333"/><path d="M269.999 731.063H158.487a13.376 13.376 0 0 1-13.374-13.378v-235.61a13.376 13.376 0 0 1 13.374-13.378h111.512a13.376 13.376 0 0 1 13.374 13.378v235.61a13.377 13.377 0 0 1-13.374 13.378z" fill="#009fe3"/><path d="M202.796 641.041a47.237 47.237 0 0 0 23.62-30.243 9.071 9.071 0 0 0-2.293.02s-5.332 17.942-18.648 26.5c-1.109.714-2.679 3.723-2.679 3.723z" fill="#fff"/><path d="M226.212 611.556s14.713-10.293 17.137-35.964c-3.34 4.644-4.543 5.977-4.543 5.977s5.077-12.185 3.479-25.838-14.5-33.893-37.87-43.061a12.9 12.9 0 0 1 3.662 6.4s-3.544-6.905-15.336-6.525a11.111 11.111 0 0 0-6.079 2.566s1.345 2.094-1.833 2.945c-2.714 3.777 5.543 13.635 5.543 13.635s13.918 13.957 16.867 22.422 3.105 10.8 3.105 10.8 7.266 3.736 8.53 8.6c-3.649-3.078-6.145-3.173-6.145-3.173s5.094 14.993 3.214 23.043 7.5 21.072 7.5 21.072z" fill="#fff"/><path d="M195.518 522.269s44.576 27.337 30.889 79.653c19.264-58.544-30.889-79.653-30.889-79.653z" fill="#009fe3"/><path d="M168.023 663.676l-.779-2.047h-6.627l-.779 2.092a7.326 7.326 0 0 1-.779 1.652 1.238 1.238 0 0 1-1.057.429 1.548 1.548 0 0 1-1.1-.456 1.4 1.4 0 0 1-.478-1.035 2.3 2.3 0 0 1 .111-.69q.111-.356.367-.99l4.171-10.592.428-1.1a5.54 5.54 0 0 1 .534-1.062 2.175 2.175 0 0 1 .745-.684 2.284 2.284 0 0 1 1.14-.261 2.309 2.309 0 0 1 1.151.261 2.216 2.216 0 0 1 .745.673 4.733 4.733 0 0 1 .478.885q.195.473.495 1.263l4.26 10.526a5.287 5.287 0 0 1 .5 1.747 1.446 1.446 0 0 1-.473 1.04 1.554 1.554 0 0 1-1.14.473 1.473 1.473 0 0 1-.667-.139 1.368 1.368 0 0 1-.467-.378 3.469 3.469 0 0 1-.406-.734 43.2 43.2 0 0 1-.373-.873zm-6.54-4.529h4.872l-2.458-6.732zm15.083-3.994v.367a5.993 5.993 0 0 1 1.78-1.552 4.351 4.351 0 0 1 2.091-.5 4.843 4.843 0 0 1 2.58.723 4.983 4.983 0 0 1 1.863 2.114 7.384 7.384 0 0 1 .684 3.293 8.045 8.045 0 0 1-.395 2.576 5.78 5.78 0 0 1-1.085 1.969 4.737 4.737 0 0 1-1.629 1.224 4.813 4.813 0 0 1-2.019.428 4.23 4.23 0 0 1-2.186-.523 6.241 6.241 0 0 1-1.685-1.536v4.562q0 2-1.457 2a1.168 1.168 0 0 1-1.135-.517 3.259 3.259 0 0 1-.278-1.508V655.18a1.912 1.912 0 0 1 .378-1.3 1.309 1.309 0 0 1 1.035-.429 1.365 1.365 0 0 1 1.051.44 1.8 1.8 0 0 1 .407 1.262zm5.951 4.418a5.253 5.253 0 0 0-.367-2.064 3.027 3.027 0 0 0-1.018-1.324 2.432 2.432 0 0 0-1.44-.462 2.7 2.7 0 0 0-2.119.99 4.324 4.324 0 0 0-.862 2.915 4.223 4.223 0 0 0 .856 2.82 2.68 2.68 0 0 0 2.125 1.007 2.439 2.439 0 0 0 1.4-.44 3.023 3.023 0 0 0 1.035-1.318 5.247 5.247 0 0 0 .39-2.124zm8.286-4.418v.367a5.993 5.993 0 0 1 1.78-1.552 4.35 4.35 0 0 1 2.091-.5 4.843 4.843 0 0 1 2.58.723 4.983 4.983 0 0 1 1.863 2.114 7.384 7.384 0 0 1 .684 3.293 8.037 8.037 0 0 1-.395 2.576 5.78 5.78 0 0 1-1.085 1.969 4.733 4.733 0 0 1-1.629 1.224 4.812 4.812 0 0 1-2.019.428 4.23 4.23 0 0 1-2.186-.523 6.24 6.24 0 0 1-1.685-1.536v4.562q0 2-1.457 2a1.168 1.168 0 0 1-1.135-.517 3.259 3.259 0 0 1-.278-1.508V655.18a1.912 1.912 0 0 1 .378-1.3 1.309 1.309 0 0 1 1.035-.429 1.365 1.365 0 0 1 1.051.44 1.8 1.8 0 0 1 .407 1.262zm5.951 4.418a5.254 5.254 0 0 0-.367-2.064 3.027 3.027 0 0 0-1.018-1.324 2.432 2.432 0 0 0-1.44-.462 2.7 2.7 0 0 0-2.119.99 4.324 4.324 0 0 0-.862 2.915 4.223 4.223 0 0 0 .856 2.82 2.68 2.68 0 0 0 2.125 1.007 2.439 2.439 0 0 0 1.4-.44 3.021 3.021 0 0 0 1.035-1.318 5.233 5.233 0 0 0 .389-2.124zm8.497 1.846v2.537a1.958 1.958 0 0 1-.434 1.385 1.445 1.445 0 0 1-1.1.462 1.389 1.389 0 0 1-1.079-.467 2 2 0 0 1-.423-1.38v-8.456q0-2.047 1.479-2.047a1.234 1.234 0 0 1 1.09.479 2.638 2.638 0 0 1 .367 1.413 5.309 5.309 0 0 1 1.118-1.413 2.308 2.308 0 0 1 1.529-.479 3.91 3.91 0 0 1 1.857.479 1.429 1.429 0 0 1 .9 1.268 1.206 1.206 0 0 1-.384.918 1.192 1.192 0 0 1-.829.362 3.827 3.827 0 0 1-.806-.206 3.757 3.757 0 0 0-1.129-.206 1.651 1.651 0 0 0-1.09.35 2.249 2.249 0 0 0-.656 1.04 7.274 7.274 0 0 0-.323 1.641q-.087.952-.087 2.32zm14.872-1.044h-5.939a4.036 4.036 0 0 0 .417 1.825 2.791 2.791 0 0 0 2.564 1.591 3.64 3.64 0 0 0 1-.128 3.237 3.237 0 0 0 .873-.4 6.647 6.647 0 0 0 .779-.584q.356-.312.923-.845a1 1 0 0 1 .667-.2 1.1 1.1 0 0 1 .756.256.914.914 0 0 1 .289.723 1.975 1.975 0 0 1-.323.963 3.823 3.823 0 0 1-.973 1.057 5.538 5.538 0 0 1-1.635.84 7.043 7.043 0 0 1-2.263.334 6.055 6.055 0 0 1-4.549-1.669 6.216 6.216 0 0 1-1.624-4.529 7.557 7.557 0 0 1 .4-2.5 5.508 5.508 0 0 1 1.168-1.975 5.064 5.064 0 0 1 1.891-1.263 6.784 6.784 0 0 1 2.492-.44 5.905 5.905 0 0 1 3.053.751 4.94 4.94 0 0 1 1.907 1.942 5.107 5.107 0 0 1 .634 2.426q0 1.146-.656 1.485a4.091 4.091 0 0 1-1.851.34zm-5.94-1.725h5.506a3.691 3.691 0 0 0-.84-2.331 2.513 2.513 0 0 0-1.919-.773 2.429 2.429 0 0 0-1.863.785 3.9 3.9 0 0 0-.884 2.319zm13.759-3.516v.367a5.314 5.314 0 0 1 1.752-1.552 4.662 4.662 0 0 1 2.186-.495 4.361 4.361 0 0 1 2.147.523 3.322 3.322 0 0 1 1.413 1.48 3.517 3.517 0 0 1 .389 1.2 12.488 12.488 0 0 1 .089 1.647v5.652a2.011 2.011 0 0 1-.417 1.38 1.5 1.5 0 0 1-2.186-.011 2 2 0 0 1-.423-1.368v-5.063a5.061 5.061 0 0 0-.417-2.3 1.7 1.7 0 0 0-1.663-.8 2.463 2.463 0 0 0-1.479.484 2.781 2.781 0 0 0-.979 1.33 9.516 9.516 0 0 0-.222 2.537v3.805a1.974 1.974 0 0 1-.428 1.385 1.441 1.441 0 0 1-1.107.462 1.375 1.375 0 0 1-1.079-.478 2 2 0 0 1-.423-1.369v-8.779a1.912 1.912 0 0 1 .378-1.3 1.309 1.309 0 0 1 1.035-.429 1.4 1.4 0 0 1 .723.189 1.354 1.354 0 0 1 .517.567 2 2 0 0 1 .194.936zm19.32 8.933v-.3a7.717 7.717 0 0 1-1.207 1.141 4.534 4.534 0 0 1-1.29.667 4.848 4.848 0 0 1-1.518.228 4.47 4.47 0 0 1-2.019-.462 4.713 4.713 0 0 1-1.607-1.318 6.01 6.01 0 0 1-1.029-2.014 8.6 8.6 0 0 1-.35-2.5 6.525 6.525 0 0 1 1.391-4.439 4.625 4.625 0 0 1 3.659-1.591 4.913 4.913 0 0 1 2.213.451 6.168 6.168 0 0 1 1.758 1.385v-4.484a2.27 2.27 0 0 1 .373-1.413 1.267 1.267 0 0 1 1.062-.479 1.315 1.315 0 0 1 1.062.439 1.96 1.96 0 0 1 .373 1.3v13.4a1.861 1.861 0 0 1-.4 1.3 1.344 1.344 0 0 1-1.035.434 1.325 1.325 0 0 1-1.029-.451 1.855 1.855 0 0 1-.407-1.294zm-5.973-4.462a5.183 5.183 0 0 0 .384 2.1 2.93 2.93 0 0 0 1.051 1.307 2.6 2.6 0 0 0 1.457.44 2.686 2.686 0 0 0 1.463-.417 2.871 2.871 0 0 0 1.057-1.279 5.171 5.171 0 0 0 .395-2.153 5.035 5.035 0 0 0-.395-2.086 3.135 3.135 0 0 0-1.068-1.335 2.549 2.549 0 0 0-1.474-.462 2.487 2.487 0 0 0-1.49.473 3.037 3.037 0 0 0-1.018 1.357 5.4 5.4 0 0 0-.362 2.055zm20.366.77h-5.939a4.035 4.035 0 0 0 .417 1.825 2.791 2.791 0 0 0 2.564 1.591 3.64 3.64 0 0 0 1-.128 3.238 3.238 0 0 0 .873-.4 6.652 6.652 0 0 0 .779-.584q.356-.312.923-.845a1 1 0 0 1 .667-.2 1.1 1.1 0 0 1 .756.256.914.914 0 0 1 .289.723 1.976 1.976 0 0 1-.323.963 3.824 3.824 0 0 1-.973 1.057 5.537 5.537 0 0 1-1.635.84 7.043 7.043 0 0 1-2.263.334 6.055 6.055 0 0 1-4.549-1.669 6.216 6.216 0 0 1-1.624-4.529 7.556 7.556 0 0 1 .4-2.5 5.508 5.508 0 0 1 1.168-1.975 5.064 5.064 0 0 1 1.891-1.263 6.785 6.785 0 0 1 2.492-.44 5.905 5.905 0 0 1 3.053.751 4.94 4.94 0 0 1 1.907 1.942 5.107 5.107 0 0 1 .634 2.426q0 1.146-.656 1.485a4.09 4.09 0 0 1-1.851.34zm-5.939-1.725h5.506a3.692 3.692 0 0 0-.84-2.331 2.513 2.513 0 0 0-1.919-.773 2.429 2.429 0 0 0-1.863.785 3.9 3.9 0 0 0-.884 2.319zm14.015 2.769v2.537a1.957 1.957 0 0 1-.434 1.385 1.445 1.445 0 0 1-1.1.462 1.389 1.389 0 0 1-1.079-.467 2 2 0 0 1-.423-1.38v-8.456q0-2.047 1.479-2.047a1.234 1.234 0 0 1 1.09.479 2.638 2.638 0 0 1 .367 1.413 5.307 5.307 0 0 1 1.118-1.413 2.307 2.307 0 0 1 1.529-.479 3.91 3.91 0 0 1 1.857.479 1.429 1.429 0 0 1 .9 1.268 1.206 1.206 0 0 1-.384.918 1.192 1.192 0 0 1-.829.362 3.827 3.827 0 0 1-.806-.206 3.756 3.756 0 0 0-1.129-.206 1.651 1.651 0 0 0-1.09.35 2.25 2.25 0 0 0-.656 1.04 7.276 7.276 0 0 0-.323 1.641q-.087.952-.087 2.32z" fill="#fff"/><path d="M237.789 477.874h-46.366a3.808 3.808 0 0 1-3.8-3.8v-6.325a3.808 3.808 0 0 1 3.8-3.8h46.367a3.808 3.808 0 0 1 3.8 3.8v6.33a3.808 3.808 0 0 1-3.801 3.795zm-97.113 43.043a1.745 1.745 0 0 1-1.74-1.741v-15.789a1.745 1.745 0 0 1 1.74-1.741 1.745 1.745 0 0 1 1.74 1.741v15.79a1.745 1.745 0 0 1-1.74 1.74zm0 23.736a1.745 1.745 0 0 1-1.74-1.741v-15.665a1.746 1.746 0 0 1 1.74-1.741 1.746 1.746 0 0 1 1.74 1.741v15.666a1.745 1.745 0 0 1-1.74 1.74zm147.134-12.152a1.745 1.745 0 0 1-1.74-1.741v-14.821a1.745 1.745 0 0 1 1.74-1.741 1.746 1.746 0 0 1 1.74 1.741v14.822a1.745 1.745 0 0 1-1.74 1.74z" fill="#333"/><path d="M222.496 472.495h-18.663a1.587 1.587 0 0 1-1.582-1.582 1.587 1.587 0 0 1 1.582-1.583h18.663a1.587 1.587 0 0 1 1.582 1.582 1.587 1.587 0 0 1-1.582 1.583z" fill="gray"/><ellipse cx="2.056" cy="1.899" rx="2.056" ry="1.899" transform="translate(228.757 469.013)" fill="gray"/><path d="M366.231 742h-75.626a16.425 16.425 0 0 1-16.423-16.428V556.511a16.425 16.425 0 0 1 16.423-16.428h75.626a16.425 16.425 0 0 1 16.422 16.428v169.061A16.425 16.425 0 0 1 366.231 742z" fill="#333"/><path d="M364.645 737.287h-72.771a13.711 13.711 0 0 1-13.709-13.713V564.908h100.188v158.665a13.711 13.711 0 0 1-13.708 13.714z" fill="#fff"/><path d="M274.282 582.849h-.2a1.186 1.186 0 0 1-1.183-1.183v-11.864a1.186 1.186 0 0 1 1.183-1.183h.2a1.186 1.186 0 0 1 1.183 1.183v11.864a1.187 1.187 0 0 1-1.183 1.183zm0 17.528h-.2a1.186 1.186 0 0 1-1.183-1.183v-11.773a1.186 1.186 0 0 1 1.183-1.183h.2a1.186 1.186 0 0 1 1.183 1.183v11.773a1.187 1.187 0 0 1-1.183 1.183zm108.471-8.973h-.2a1.186 1.186 0 0 1-1.183-1.183v-11.147a1.186 1.186 0 0 1 1.183-1.183h.2a1.186 1.186 0 0 1 1.183 1.183v11.149a1.186 1.186 0 0 1-1.183 1.181z" fill="#333"/><path d="M378.353 564.908H278.165v-6.674a13.711 13.711 0 0 1 13.709-13.713h72.771a13.711 13.711 0 0 1 13.708 13.713v6.672z" fill="#009fe3"/><path d="M345.04 551.067h-32.709a3.547 3.547 0 0 1-3.536-3.537v-3.208a3.547 3.547 0 0 1 3.536-3.537h32.709a3.547 3.547 0 0 1 3.536 3.537v3.208a3.547 3.547 0 0 1-3.536 3.537z" fill="#333"/><path d="M334.867 547.093H320.38a.806.806 0 0 1-.8-.8v-.729a.806.806 0 0 1 .8-.8h14.487a.806.806 0 0 1 .8.8v.729a.806.806 0 0 1-.8.8z" fill="gray"/><ellipse cx="1.516" cy="1.402" rx="1.516" ry="1.402" transform="translate(339.117 544.523)" fill="gray"/><path d="M355.863 553.732v3.706h2.959l3.7 3.089v-9.883l-3.7 3.089zm9.989 1.852a2.692 2.692 0 0 0-1.85-2.47v4.94a2.69 2.69 0 0 0 1.85-2.47zm-1.85-5.435v1.3a4.164 4.164 0 0 1 0 8.275v1.3c2.959-.555 5.176-2.778 5.176-5.435s-2.218-4.88-5.176-5.435zm0 0" fill="#fff"/><path d="M366.098 597.576h-75.361a1.915 1.915 0 0 1-1.909-1.91v-10.907a1.915 1.915 0 0 1 1.909-1.91h75.361a1.915 1.915 0 0 1 1.909 1.91v10.906a1.915 1.915 0 0 1-1.909 1.911z" fill="#fff" stroke="#999" stroke-miterlimit="10" stroke-width=".5"/><path d="M357.969 720.64h-58.567a6.488 6.488 0 0 1-6.468-6.47v-4.8a6.488 6.488 0 0 1 6.468-6.47h58.567a6.488 6.488 0 0 1 6.468 6.47v4.8a6.488 6.488 0 0 1-6.468 6.47z" fill="#ec407a"/><g transform="translate(309.87 638.108)"><ellipse cx="18.983" cy="18.989" rx="18.983" ry="18.989" fill="#008cc8"/><g fill="#fff"><path d="M18.983 24.762a4.1 4.1 0 0 0 4.188-3.993V11.8a4.193 4.193 0 0 0-8.376 0v8.969a4.1 4.1 0 0 0 4.188 3.993zm0 0"/><path d="M25.715 18.382h-.834a.475.475 0 0 0-.486.463v1.626a5.419 5.419 0 0 1-10.825 0v-1.626a.474.474 0 0 0-.486-.463h-.833a.475.475 0 0 0-.486.463v1.626a7.1 7.1 0 0 0 6.314 6.825v1.152h-3.723a.475.475 0 0 0-.485.463v.8a.473.473 0 0 0 .485.462h9.254a.474.474 0 0 0 .486-.462v-.8a.475.475 0 0 0-.486-.463h-3.725v-1.152a7.1 7.1 0 0 0 6.314-6.825v-1.626a.474.474 0 0 0-.484-.463zm0 0"/></g></g><path d="M318.372 623.414a8.172 8.172 0 0 1-2.31 1.335 7.146 7.146 0 0 1-2.382.389 4.875 4.875 0 0 1-3.228-.951 3.174 3.174 0 0 1-.7-4.015 3.372 3.372 0 0 1 1.116-1.151 5.455 5.455 0 0 1 1.554-.656 16.576 16.576 0 0 1 1.92-.3 21.1 21.1 0 0 0 3.852-.69q.012-.411.012-.523a2.115 2.115 0 0 0-.612-1.724 3.814 3.814 0 0 0-2.46-.678 4.052 4.052 0 0 0-2.25.5 2.984 2.984 0 0 0-1.074 1.751l-2.112-.267a4.683 4.683 0 0 1 .948-2.03 4.183 4.183 0 0 1 1.908-1.19 9.117 9.117 0 0 1 2.892-.417 8.212 8.212 0 0 1 2.652.356 3.533 3.533 0 0 1 1.5.9 3.055 3.055 0 0 1 .672 1.362 10.446 10.446 0 0 1 .108 1.846v2.669a26.251 26.251 0 0 0 .138 3.531 4.244 4.244 0 0 0 .546 1.418h-2.256a4.011 4.011 0 0 1-.434-1.465zm-.18-4.471a16.88 16.88 0 0 1-3.528.756 8.689 8.689 0 0 0-1.884.4 1.854 1.854 0 0 0-.852.651 1.619 1.619 0 0 0-.3.951 1.655 1.655 0 0 0 .654 1.335 2.967 2.967 0 0 0 1.914.534 4.732 4.732 0 0 0 2.22-.506 3.232 3.232 0 0 0 1.428-1.385 4.521 4.521 0 0 0 .348-2zm7.524 5.928h-2v-16.3h2.16v5.816a4.4 4.4 0 0 1 3.492-1.59 5.708 5.708 0 0 1 2.226.439 4.522 4.522 0 0 1 1.728 1.234 5.823 5.823 0 0 1 1.062 1.918 7.38 7.38 0 0 1 .384 2.4 6.433 6.433 0 0 1-1.62 4.693 5.243 5.243 0 0 1-3.888 1.657 4.152 4.152 0 0 1-3.54-1.746v1.479zm-.024-5.994a5.75 5.75 0 0 0 .624 3.069 3.154 3.154 0 0 0 2.76 1.546 3.2 3.2 0 0 0 2.448-1.14 4.915 4.915 0 0 0 1.032-3.4 4.994 4.994 0 0 0-.99-3.414 3.1 3.1 0 0 0-2.394-1.1 3.2 3.2 0 0 0-2.448 1.14 4.753 4.753 0 0 0-1.032 3.299zm20.014 1.668l2.124.256a5 5 0 0 1-1.782 3.186 5.446 5.446 0 0 1-3.522 1.151 5.7 5.7 0 0 1-4.206-1.585 6.136 6.136 0 0 1-1.59-4.543 7.7 7.7 0 0 1 .684-3.347 4.555 4.555 0 0 1 2.082-2.152 6.565 6.565 0 0 1 3.042-.717 5.576 5.576 0 0 1 3.4.973 4.4 4.4 0 0 1 1.685 2.764l-2.1.3a3.178 3.178 0 0 0-1.062-1.79 2.884 2.884 0 0 0-1.842-.6 3.474 3.474 0 0 0-2.652 1.084 4.883 4.883 0 0 0-1.02 3.431 5.041 5.041 0 0 0 .984 3.458 3.313 3.313 0 0 0 2.572 1.075 3.169 3.169 0 0 0 2.12-.72 3.484 3.484 0 0 0 1.083-2.224z" fill="#4d4d4d"/><path d="M334.834 709.582l-6.543 6.409a1.494 1.494 0 0 1-2.082 0l-3.334-3.267a1.422 1.422 0 0 1 0-2.041 1.494 1.494 0 0 1 2.083 0l2.292 2.247 5.5-5.389a1.495 1.495 0 0 1 2.083 0 1.424 1.424 0 0 1 0 2.041zm-2.763 0" fill="#fff"/></g></svg>