<svg xmlns="http://www.w3.org/2000/svg" width="250" height="250"><defs><style>.a{fill:#fff}.b{fill:#91dc5a}</style></defs><g transform="translate(-846.333 -1505)"><circle class="a" cx="125" cy="125" r="125" transform="translate(846.333 1505)"/><g transform="translate(-29.667 -122)"><circle class="b" cx="100" cy="100" r="100" transform="translate(897 1652)"/><circle class="b" cx="82.5" cy="82.5" r="82.5" transform="translate(914 1669)"/><path class="a" d="M952.765 1711.214h92.857v77.246h-92.857z"/><path class="b" d="M997.336 1686.721a65 65 0 1 0 65 65 65.073 65.073 0 0 0-65-65zm37.324 54.021l-22.046 22.045-18.79 18.79a9.193 9.193 0 0 1-13 0l-20.812-20.812a9.192 9.192 0 1 1 13-13l14.311 14.312 34.336-34.336a9.193 9.193 0 0 1 13 13z"/><path class="a" d="M1062.192 1671.141h35.714v29.71h-35.714z"/><path d="M1079.335 1661.721a25 25 0 1 0 25 25 25.028 25.028 0 0 0-25-25zm14.355 20.777l-8.479 8.479-7.227 7.227a3.536 3.536 0 0 1-5 0l-8-8a3.536 3.536 0 1 1 5-5l5.5 5.5 13.206-13.206a3.536 3.536 0 0 1 5 5z" fill="#009fe3"/><path class="a" d="M920.621 1809.257h28.571v23.768h-28.571z"/><path d="M934.335 1801.721a20 20 0 1 0 20 20 20.023 20.023 0 0 0-20-20zm11.484 16.622l-6.784 6.783-5.782 5.782a2.829 2.829 0 0 1-4 0l-6.4-6.4a2.828 2.828 0 1 1 4-4l4.4 4.4 10.566-10.565a2.829 2.829 0 0 1 4 4z" fill="#ec407a"/><path class="a" d="M1062.049 1819.373h21.429v17.826h-21.429z"/><path d="M1072.335 1813.721a15 15 0 1 0 15 15 15.017 15.017 0 0 0-15-15zm8.613 12.466l-5.087 5.087-4.336 4.337a2.121 2.121 0 0 1-3 0l-4.8-4.8a2.121 2.121 0 1 1 3-3l3.3 3.3 7.924-7.924a2.121 2.121 0 0 1 3 3z" fill="#ff6f00"/></g></g></svg>