<svg xmlns="http://www.w3.org/2000/svg" width="49.315" height="40"><path d="M15.616 40c18.63 0 28.767-15.342 28.767-28.767v-1.37a22.27 22.27 0 0 0 4.932-5.205A22.744 22.744 0 0 1 43.562 6.3 10.659 10.659 0 0 0 47.946.821a25.13 25.13 0 0 1-6.3 2.466A9.784 9.784 0 0 0 34.247 0 10.293 10.293 0 0 0 24.11 10.137a14.753 14.753 0 0 0 .274 2.192S8.493 7.945 3.562 1.644a10.492 10.492 0 0 0-1.37 5.205 10.885 10.885 0 0 0 4.384 8.493 9.236 9.236 0 0 1-4.658-1.37 10.013 10.013 0 0 0 8.219 9.863 8.446 8.446 0 0 1-2.74.274 4.662 4.662 0 0 1-1.918-.274 10.379 10.379 0 0 0 9.589 7.123 20.685 20.685 0 0 1-12.6 4.384A7.585 7.585 0 0 1 0 35.068 25.86 25.86 0 0 0 15.616 40" fill="#fff" fill-rule="evenodd"/></svg>