<svg xmlns="http://www.w3.org/2000/svg" width="40" height="40" viewBox="0 0 40 40"><path d="M20,3.556a61.324,61.324,0,0,1,8,.222,10.307,10.307,0,0,1,3.778.667,7.8,7.8,0,0,1,3.778,3.778A10.307,10.307,0,0,1,36.222,12c0,2,.222,2.667.222,8a61.323,61.323,0,0,1-.222,8,10.307,10.307,0,0,1-.667,3.778,7.8,7.8,0,0,1-3.778,3.778A10.307,10.307,0,0,1,28,36.222c-2,0-2.667.222-8,.222a61.323,61.323,0,0,1-8-.222,10.307,10.307,0,0,1-3.778-.667,7.8,7.8,0,0,1-3.778-3.778A10.307,10.307,0,0,1,3.778,28c0-2-.222-2.667-.222-8a61.324,61.324,0,0,1,.222-8,10.307,10.307,0,0,1,.667-3.778A7.981,7.981,0,0,1,6,6,3.757,3.757,0,0,1,8.222,4.444,10.307,10.307,0,0,1,12,3.778a61.324,61.324,0,0,1,8-.222M20,0a65.66,65.66,0,0,0-8.222.222,13.719,13.719,0,0,0-4.889.889A8.7,8.7,0,0,0,3.333,3.333,8.7,8.7,0,0,0,1.111,6.889a10.125,10.125,0,0,0-.889,4.889A65.66,65.66,0,0,0,0,20a65.66,65.66,0,0,0,.222,8.222,13.719,13.719,0,0,0,.889,4.889,8.7,8.7,0,0,0,2.222,3.556,8.7,8.7,0,0,0,3.556,2.222,13.719,13.719,0,0,0,4.889.889A65.661,65.661,0,0,0,20,40a65.661,65.661,0,0,0,8.222-.222,13.719,13.719,0,0,0,4.889-.889,9.323,9.323,0,0,0,5.778-5.778,13.719,13.719,0,0,0,.889-4.889C39.778,26,40,25.333,40,20a65.661,65.661,0,0,0-.222-8.222,13.719,13.719,0,0,0-.889-4.889,8.7,8.7,0,0,0-2.222-3.556,8.7,8.7,0,0,0-3.556-2.222A13.719,13.719,0,0,0,28.222.222,65.66,65.66,0,0,0,20,0m0,9.778A10.058,10.058,0,0,0,9.778,20,10.222,10.222,0,1,0,20,9.778m0,16.889A6.548,6.548,0,0,1,13.333,20,6.548,6.548,0,0,1,20,13.333,6.548,6.548,0,0,1,26.667,20,6.548,6.548,0,0,1,20,26.667M30.667,6.889a2.444,2.444,0,1,0,2.444,2.444,2.466,2.466,0,0,0-2.444-2.444" fill="#fff" fill-rule="evenodd"/></svg>