<svg xmlns="http://www.w3.org/2000/svg" width="250" height="250" viewBox="0 0 250 250"><g transform="translate(-846.333 -1505)"><circle cx="125" cy="125" r="125" transform="translate(846.333 1505)" fill="#fff"/><circle cx="100" cy="100" r="100" transform="translate(867.333 1530)" fill="#dbf6c7"/><circle cx="82.5" cy="82.5" r="82.5" transform="translate(884.333 1547)" fill="#c2e9a4"/><g transform="translate(902.669 1564.721)"><rect width="92.857" height="77.246" transform="translate(20.429 24.493)" fill="#fff"/><path d="M65,0a65,65,0,1,0,65,65A65.073,65.073,0,0,0,65,0Zm37.324,54.021L80.278,76.066l-18.79,18.79a9.193,9.193,0,0,1-13,0L27.676,74.044a9.192,9.192,0,1,1,13-13L54.987,75.356,89.323,41.02a9.193,9.193,0,0,1,13,13Z" fill="#91dc5a"/></g><g transform="translate(1024.669 1539.721)"><rect width="35.714" height="29.71" transform="translate(7.857 9.42)" fill="#fff"/><path d="M25,0A25,25,0,1,0,50,25,25.028,25.028,0,0,0,25,0ZM39.355,20.777l-8.479,8.479-7.227,7.227a3.536,3.536,0,0,1-5,0l-8-8a3.535,3.535,0,1,1,5-5l5.5,5.5L34.355,15.777a3.536,3.536,0,0,1,5,5Z" fill="#009fe3"/></g><g transform="translate(884.669 1679.721)"><rect width="28.571" height="23.768" transform="translate(6.286 7.536)" fill="#fff"/><path d="M20,0A20,20,0,1,0,40,20,20.023,20.023,0,0,0,20,0ZM31.484,16.622,24.7,23.405l-5.782,5.782a2.829,2.829,0,0,1-4,0l-6.4-6.4a2.828,2.828,0,1,1,4-4l4.4,4.4L27.484,12.622a2.829,2.829,0,0,1,4,4Z" fill="#ec407a"/></g><g transform="translate(1027.669 1691.721)"><rect width="21.429" height="17.826" transform="translate(4.714 5.652)" fill="#fff"/><path d="M15,0A15,15,0,1,0,30,15,15.017,15.017,0,0,0,15,0Zm8.613,12.466-5.087,5.087L14.19,21.89a2.121,2.121,0,0,1-3,0l-4.8-4.8a2.121,2.121,0,1,1,3-3l3.3,3.3,7.924-7.924a2.121,2.121,0,0,1,3,3Z" fill="#ff6f00"/></g></g></svg>