<svg xmlns="http://www.w3.org/2000/svg" width="202.523" height="34.042" viewBox="0 0 202.523 34.042"><path d="M21.191-16.562l-1.323-3.261H8.6L7.28-16.491a11.366,11.366,0,0,1-1.323,2.632,2.171,2.171,0,0,1-1.8.682A2.725,2.725,0,0,1,2.29-13.9a2.168,2.168,0,0,1-.813-1.648,3.467,3.467,0,0,1,.189-1.1q.189-.567.624-1.577L9.378-35.1l.728-1.745a8.627,8.627,0,0,1,.907-1.692,3.608,3.608,0,0,1,1.266-1.09,4.094,4.094,0,0,1,1.937-.416,4.139,4.139,0,0,1,1.956.416,3.687,3.687,0,0,1,1.266,1.072,7.384,7.384,0,0,1,.813,1.409q.331.753.841,2.011l7.239,16.764a8.021,8.021,0,0,1,.851,2.782,2.242,2.242,0,0,1-.8,1.657,2.731,2.731,0,0,1-1.937.753,2.654,2.654,0,0,1-1.134-.222,2.3,2.3,0,0,1-.794-.6,5.457,5.457,0,0,1-.69-1.17Q21.455-15.959,21.191-16.562ZM10.077-23.774h8.279L14.178-34.495Zm25.63-6.362v.585a10.035,10.035,0,0,1,3.024-2.472,7.8,7.8,0,0,1,3.553-.789,8.644,8.644,0,0,1,4.385,1.152,8.127,8.127,0,0,1,3.166,3.367A11.143,11.143,0,0,1,51-23.047a12.065,12.065,0,0,1-.671,4.1,9.058,9.058,0,0,1-1.843,3.137,8.021,8.021,0,0,1-2.769,1.949,8.64,8.64,0,0,1-3.431.682,7.573,7.573,0,0,1-3.714-.833,10.408,10.408,0,0,1-2.863-2.445V-9.19Q35.707-6,33.231-6A2.033,2.033,0,0,1,31.3-6.824a4.909,4.909,0,0,1-.473-2.4V-30.1a2.915,2.915,0,0,1,.643-2.064,2.3,2.3,0,0,1,1.758-.682,2.4,2.4,0,0,1,1.786.7A2.746,2.746,0,0,1,35.707-30.136ZM45.819-23.1a7.9,7.9,0,0,0-.624-3.287A4.877,4.877,0,0,0,43.465-28.5a4.325,4.325,0,0,0-2.448-.735,4.722,4.722,0,0,0-3.6,1.577,6.594,6.594,0,0,0-1.465,4.643,6.445,6.445,0,0,0,1.455,4.492,4.678,4.678,0,0,0,3.61,1.6,4.341,4.341,0,0,0,2.382-.7,4.879,4.879,0,0,0,1.758-2.1A7.873,7.873,0,0,0,45.819-23.1ZM59.9-30.136v.585a10.035,10.035,0,0,1,3.024-2.472,7.8,7.8,0,0,1,3.553-.789,8.644,8.644,0,0,1,4.385,1.152,8.128,8.128,0,0,1,3.166,3.367,11.143,11.143,0,0,1,1.162,5.245,12.065,12.065,0,0,1-.671,4.1,9.058,9.058,0,0,1-1.843,3.137,8.021,8.021,0,0,1-2.769,1.949,8.64,8.64,0,0,1-3.431.682,7.574,7.574,0,0,1-3.714-.833A10.408,10.408,0,0,1,59.9-16.455V-9.19Q59.9-6,57.424-6A2.033,2.033,0,0,1,55.5-6.824a4.909,4.909,0,0,1-.473-2.4V-30.1a2.915,2.915,0,0,1,.643-2.064,2.3,2.3,0,0,1,1.758-.682,2.4,2.4,0,0,1,1.786.7A2.746,2.746,0,0,1,59.9-30.136ZM70.012-23.1a7.9,7.9,0,0,0-.624-3.287A4.877,4.877,0,0,0,67.658-28.5a4.325,4.325,0,0,0-2.448-.735,4.722,4.722,0,0,0-3.6,1.577,6.594,6.594,0,0,0-1.465,4.643A6.445,6.445,0,0,0,61.6-18.52a4.678,4.678,0,0,0,3.61,1.6,4.341,4.341,0,0,0,2.382-.7,4.879,4.879,0,0,0,1.758-2.1A7.873,7.873,0,0,0,70.012-23.1Zm14.44,2.942v4.04a2.992,2.992,0,0,1-.737,2.206,2.538,2.538,0,0,1-1.871.735,2.437,2.437,0,0,1-1.833-.744,3.046,3.046,0,0,1-.718-2.2V-29.586q0-3.261,2.514-3.261a2.157,2.157,0,0,1,1.852.762,4.006,4.006,0,0,1,.624,2.251,8.588,8.588,0,0,1,1.9-2.251,4.1,4.1,0,0,1,2.6-.762,7,7,0,0,1,3.156.762,2.284,2.284,0,0,1,1.531,2.02,1.865,1.865,0,0,1-.652,1.462,2.09,2.09,0,0,1-1.408.576,6.847,6.847,0,0,1-1.37-.328,6.754,6.754,0,0,0-1.918-.328,2.931,2.931,0,0,0-1.852.558,3.565,3.565,0,0,0-1.115,1.657,10.933,10.933,0,0,0-.548,2.614Q84.452-22.339,84.452-20.159Zm26.234-1.666H100.593a6.1,6.1,0,0,0,.709,2.906,4.685,4.685,0,0,0,1.833,1.9,5.091,5.091,0,0,0,2.523.638,6.57,6.57,0,0,0,1.692-.2,5.691,5.691,0,0,0,1.484-.638,11.29,11.29,0,0,0,1.323-.93q.6-.5,1.569-1.347a1.771,1.771,0,0,1,1.134-.319,1.947,1.947,0,0,1,1.285.408,1.413,1.413,0,0,1,.491,1.152,3.014,3.014,0,0,1-.548,1.533,6.248,6.248,0,0,1-1.654,1.683,9.659,9.659,0,0,1-2.778,1.338,12.7,12.7,0,0,1-3.846.532q-4.971,0-7.73-2.658a9.546,9.546,0,0,1-2.76-7.212A11.35,11.35,0,0,1,96-27.026a8.675,8.675,0,0,1,1.985-3.145,8.662,8.662,0,0,1,3.213-2.011,12.221,12.221,0,0,1,4.234-.7,10.573,10.573,0,0,1,5.188,1.2,8.134,8.134,0,0,1,3.242,3.092,7.737,7.737,0,0,1,1.077,3.863,2.36,2.36,0,0,1-1.115,2.366A7.352,7.352,0,0,1,110.686-21.825Zm-10.093-2.747h9.356a5.668,5.668,0,0,0-1.427-3.712,4.421,4.421,0,0,0-3.26-1.232,4.266,4.266,0,0,0-3.166,1.249A6,6,0,0,0,100.593-24.571Zm23.38-5.6v.585a8.879,8.879,0,0,1,2.977-2.472,8.367,8.367,0,0,1,3.714-.789,7.809,7.809,0,0,1,3.648.833,5.457,5.457,0,0,1,2.4,2.357,5.363,5.363,0,0,1,.662,1.914,18.607,18.607,0,0,1,.151,2.623v9a3.072,3.072,0,0,1-.709,2.2,2.43,2.43,0,0,1-1.843.744,2.454,2.454,0,0,1-1.871-.762,3.058,3.058,0,0,1-.718-2.18v-8.063a7.623,7.623,0,0,0-.709-3.659,2.948,2.948,0,0,0-2.826-1.267,4.374,4.374,0,0,0-2.514.771,4.464,4.464,0,0,0-1.663,2.118,14.245,14.245,0,0,0-.378,4.04v6.06a3.016,3.016,0,0,1-.728,2.206,2.531,2.531,0,0,1-1.881.735,2.409,2.409,0,0,1-1.833-.762,3.058,3.058,0,0,1-.718-2.18V-30.1a2.915,2.915,0,0,1,.643-2.064,2.3,2.3,0,0,1,1.758-.682,2.508,2.508,0,0,1,1.229.3,2.216,2.216,0,0,1,.879.9A3.019,3.019,0,0,1,123.974-30.171ZM156.8-15.941v-.478a12.809,12.809,0,0,1-2.051,1.816,7.918,7.918,0,0,1-2.192,1.063,8.743,8.743,0,0,1-2.58.363,8.021,8.021,0,0,1-3.43-.735,7.924,7.924,0,0,1-2.731-2.1,9.372,9.372,0,0,1-1.748-3.207,12.9,12.9,0,0,1-.6-3.987,9.97,9.97,0,0,1,2.363-7.071,8.1,8.1,0,0,1,6.218-2.534,8.829,8.829,0,0,1,3.761.718,10.42,10.42,0,0,1,2.986,2.206v-7.141a3.45,3.45,0,0,1,.633-2.251,2.215,2.215,0,0,1,1.805-.762,2.309,2.309,0,0,1,1.805.7,2.984,2.984,0,0,1,.633,2.064v21.336a2.843,2.843,0,0,1-.68,2.073,2.359,2.359,0,0,1-1.758.691,2.321,2.321,0,0,1-1.748-.718A2.836,2.836,0,0,1,156.8-15.941Zm-10.15-7.106a7.8,7.8,0,0,0,.652,3.349,4.741,4.741,0,0,0,1.786,2.082,4.625,4.625,0,0,0,2.476.7,4.8,4.8,0,0,0,2.485-.665,4.653,4.653,0,0,0,1.8-2.038,7.785,7.785,0,0,0,.671-3.429,7.583,7.583,0,0,0-.671-3.323,5.069,5.069,0,0,0-1.814-2.126,4.538,4.538,0,0,0-2.5-.735,4.42,4.42,0,0,0-2.533.753,4.88,4.88,0,0,0-1.729,2.162A8.119,8.119,0,0,0,146.655-23.047Zm34.608,1.223H171.169a6.1,6.1,0,0,0,.709,2.906,4.686,4.686,0,0,0,1.833,1.9,5.091,5.091,0,0,0,2.523.638,6.57,6.57,0,0,0,1.692-.2,5.691,5.691,0,0,0,1.484-.638,11.292,11.292,0,0,0,1.323-.93q.6-.5,1.569-1.347a1.771,1.771,0,0,1,1.134-.319,1.947,1.947,0,0,1,1.285.408,1.413,1.413,0,0,1,.491,1.152,3.014,3.014,0,0,1-.548,1.533,6.248,6.248,0,0,1-1.654,1.683,9.658,9.658,0,0,1-2.778,1.338,12.7,12.7,0,0,1-3.846.532q-4.971,0-7.73-2.658a9.546,9.546,0,0,1-2.76-7.212,11.35,11.35,0,0,1,.68-3.978,8.675,8.675,0,0,1,1.985-3.145,8.662,8.662,0,0,1,3.213-2.011,12.221,12.221,0,0,1,4.234-.7,10.573,10.573,0,0,1,5.188,1.2,8.134,8.134,0,0,1,3.242,3.092,7.737,7.737,0,0,1,1.077,3.863,2.36,2.36,0,0,1-1.115,2.366A7.352,7.352,0,0,1,181.262-21.825Zm-10.093-2.747h9.356a5.668,5.668,0,0,0-1.427-3.712,4.421,4.421,0,0,0-3.26-1.232,4.266,4.266,0,0,0-3.166,1.249A6,6,0,0,0,171.169-24.571Zm23.815,4.412v4.04a2.992,2.992,0,0,1-.737,2.206,2.538,2.538,0,0,1-1.871.735,2.437,2.437,0,0,1-1.833-.744,3.046,3.046,0,0,1-.718-2.2V-29.586q0-3.261,2.514-3.261a2.157,2.157,0,0,1,1.852.762,4.007,4.007,0,0,1,.624,2.251,8.588,8.588,0,0,1,1.9-2.251,4.1,4.1,0,0,1,2.6-.762,7,7,0,0,1,3.156.762A2.284,2.284,0,0,1,204-30.065a1.865,1.865,0,0,1-.652,1.462,2.09,2.09,0,0,1-1.408.576,6.846,6.846,0,0,1-1.37-.328,6.754,6.754,0,0,0-1.918-.328,2.931,2.931,0,0,0-1.852.558,3.565,3.565,0,0,0-1.115,1.657,10.933,10.933,0,0,0-.548,2.614Q194.984-22.339,194.984-20.159Z" transform="translate(-1.477 40.042)" fill="#fff"/></svg>