<svg xmlns="http://www.w3.org/2000/svg" width="250" height="250" viewBox="0 0 250 250"><g transform="translate(0 0)"><path d="M125,0A125,125,0,1,1,0,125,125,125,0,0,1,125,0Z" transform="translate(0)" fill="#f1f1f1"/><ellipse cx="93.75" cy="93.75" rx="93.75" ry="93.75" transform="translate(31.25 31.25)" fill="#d2d2d2"/></g><g transform="translate(38.621 79.325)"><path d="M145.558,276.447c13.828,0,25.081-10.944,25.081-24.394v-54.8c0-13.449-11.252-24.394-25.081-24.394s-25.083,10.946-25.083,24.394v54.8c0,13.451,11.247,24.394,25.083,24.394Zm0,0" transform="translate(-102.336 -172.861)" fill="#fff"/><path d="M165.514,310.168h-4.995A2.872,2.872,0,0,0,157.611,313v9.937c0,17.383-14.538,31.523-32.411,31.523s-32.419-14.139-32.419-31.523V313a2.868,2.868,0,0,0-2.908-2.828H84.885A2.873,2.873,0,0,0,81.975,313v9.937c0,20.786,16.611,39.1,37.817,41.695v7.038H97.485a2.869,2.869,0,0,0-2.9,2.83v4.858a2.863,2.863,0,0,0,2.9,2.821h55.422a2.867,2.867,0,0,0,2.908-2.821V374.5a2.873,2.873,0,0,0-2.908-2.83H130.6v-7.038c21.206-2.6,37.817-20.909,37.817-41.695V313a2.866,2.866,0,0,0-2.9-2.828Zm0,0" transform="translate(-81.975 -247.159)" fill="#666"/></g><path d="M137.442,244.007h-16.96v-6.282h16.96a2.791,2.791,0,0,1,2.827,2.753v.775A2.791,2.791,0,0,1,137.442,244.007Z" transform="translate(-63.719 -128.634)" fill="#ccc"/><path d="M137.442,268.007h-16.96v-6.282h16.96a2.791,2.791,0,0,1,2.827,2.753v.775A2.791,2.791,0,0,1,137.442,268.007Z" transform="translate(-63.719 -141.621)" fill="#ccc"/><path d="M137.442,292.007h-16.96v-6.282h16.96a2.791,2.791,0,0,1,2.827,2.753v.775A2.791,2.791,0,0,1,137.442,292.007Z" transform="translate(-63.719 -154.608)" fill="#ccc"/><path d="M187.784,285.712h16.96v6.282h-16.96a2.791,2.791,0,0,1-2.827-2.753v-.775A2.791,2.791,0,0,1,187.784,285.712Z" transform="translate(-97.818 -154.601)" fill="#ccc"/><path d="M187.784,261.725h16.96v6.282h-16.96a2.791,2.791,0,0,1-2.827-2.753v-.775A2.791,2.791,0,0,1,187.784,261.725Z" transform="translate(-97.818 -141.621)" fill="#ccc"/><path d="M187.784,237.738h16.96v6.282h-16.96a2.791,2.791,0,0,1-2.827-2.753v-.775A2.791,2.791,0,0,1,187.784,237.738Z" transform="translate(-97.818 -128.641)" fill="#ccc"/><path d="M288.417,118.88v22.564H305.14l20.91,18.8V100.076l-20.91,18.8Z" transform="translate(-152.535 -54.152)" fill="#ec407a"/><path d="M396.527,147.885c0-6.755-4.187-12.415-10.455-15.038v30.076c6.267-2.623,10.455-8.264,10.455-15.038Z" transform="translate(-204.182 -71.884)" fill="#ec407a"/><path d="M386.071,93.51v7.9c12.128,3.375,20.911,13.162,20.911,25.192,0,12.048-8.782,21.817-20.911,25.192v7.9c16.723-3.38,29.259-16.914,29.259-33.09,0-16.157-12.535-29.71-29.259-33.09Z" transform="translate(-204.181 -50.599)" fill="#ec407a"/></svg>