<svg xmlns="http://www.w3.org/2000/svg" width="195" height="195" viewBox="0 0 195 195"><g transform="translate(0 0)"><path d="M97.5,0A97.5,97.5,0,1,1,0,97.5,97.5,97.5,0,0,1,97.5,0Z" transform="translate(0)" fill="#f1f1f1"/><ellipse cx="73.125" cy="73.125" rx="73.125" ry="73.125" transform="translate(24.375 24.375)" fill="#d2d2d2"/></g><g transform="translate(30.124 61.873)"><path d="M140.039,253.658c10.786,0,19.563-8.536,19.563-19.028V191.889c0-10.49-8.777-19.028-19.563-19.028s-19.564,8.538-19.564,19.028V234.63c0,10.492,8.773,19.028,19.564,19.028Zm0,0" transform="translate(-106.327 -172.861)" fill="#fff"/><path d="M147.135,310.168h-3.9a2.24,2.24,0,0,0-2.268,2.206v7.751c0,13.559-11.34,24.588-25.281,24.588S90.4,333.684,90.4,320.125v-7.751a2.237,2.237,0,0,0-2.268-2.206H84.245a2.241,2.241,0,0,0-2.27,2.206v7.751c0,16.213,12.956,30.5,29.5,32.522v5.49h-17.4a2.238,2.238,0,0,0-2.264,2.207v3.789a2.233,2.233,0,0,0,2.264,2.2H137.3a2.236,2.236,0,0,0,2.268-2.2v-3.789a2.241,2.241,0,0,0-2.268-2.207H119.9v-5.49c16.541-2.024,29.5-16.309,29.5-32.522v-7.751a2.236,2.236,0,0,0-2.264-2.206Zm0,0" transform="translate(-81.975 -261.021)" fill="#666"/></g><path d="M133.711,242.625H120.482v-4.9h13.229a2.177,2.177,0,0,1,2.2,2.148v.6A2.177,2.177,0,0,1,133.711,242.625Z" transform="translate(-76.207 -152.634)" fill="#ccc"/><path d="M133.711,266.625H120.482v-4.9h13.229a2.177,2.177,0,0,1,2.2,2.148v.6A2.177,2.177,0,0,1,133.711,266.625Z" transform="translate(-76.207 -168.044)" fill="#ccc"/><path d="M133.711,290.625H120.482v-4.9h13.229a2.177,2.177,0,0,1,2.2,2.148v.6A2.177,2.177,0,0,1,133.711,290.625Z" transform="translate(-76.207 -183.453)" fill="#ccc"/><path d="M187.162,285.712h13.229v4.9H187.162a2.177,2.177,0,0,1-2.2-2.148v-.6A2.177,2.177,0,0,1,187.162,285.712Z" transform="translate(-116.989 -183.445)" fill="#ccc"/><path d="M187.162,261.725h13.229v4.9H187.162a2.177,2.177,0,0,1-2.2-2.148v-.6A2.177,2.177,0,0,1,187.162,261.725Z" transform="translate(-116.989 -168.044)" fill="#ccc"/><path d="M187.162,237.738h13.229v4.9H187.162a2.177,2.177,0,0,1-2.2-2.148v-.6A2.177,2.177,0,0,1,187.162,237.738Z" transform="translate(-116.989 -152.643)" fill="#ccc"/><path d="M288.417,114.743v17.6h13.044l16.31,14.667V100.076l-16.31,14.667Z" transform="translate(-182.429 -64.255)" fill="#ec407a"/><path d="M394.227,144.577a12.718,12.718,0,0,0-8.155-11.73v23.46a12.7,12.7,0,0,0,8.155-11.73Z" transform="translate(-244.197 -85.296)" fill="#ec407a"/><path d="M386.071,93.51v6.16c9.46,2.633,16.31,10.267,16.31,19.65s-6.85,17.017-16.31,19.65v6.16c13.044-2.636,22.822-13.193,22.822-25.81s-9.778-23.174-22.822-25.81Z" transform="translate(-244.197 -60.039)" fill="#ec407a"/></svg>