<svg xmlns="http://www.w3.org/2000/svg" width="370" height="401" viewBox="0 0 370 401"><g transform="translate(-138.936 -463)"><path d="M338.79,856.012H172.283c-15.38,0-27.847-11.87-27.847-26.511V489.511C144.436,474.87,156.9,463,172.283,463H338.79c15.38,0,27.847,11.87,27.847,26.511V829.5C366.638,844.145,354.17,856.012,338.79,856.012Z" transform="translate(-2.872 0)" fill="#333"/><path d="M347.063,858.092H178.657c-11.154,0-20.2-8.609-20.2-19.228V500.228c0-10.619,9.042-19.228,20.2-19.228H347.063c11.154,0,20.2,8.609,20.2,19.228V838.864C367.26,849.481,358.218,858.092,347.063,858.092Z" transform="translate(-10.195 -9.812)" fill="#009fe3"/><g transform="translate(207.418 534.187)"><g transform="translate(0 0)"><path d="M340.779,973.375s27-11.653,35.671-43.468a14.391,14.391,0,0,0-3.463.028s-8.052,25.787-28.162,38.084C343.15,969.049,340.779,973.375,340.779,973.375Z" transform="translate(-312.82 -788.667)" fill="#fff"/><path d="M345.586,761.826s22.219-14.794,25.88-51.69c-5.044,6.675-6.86,8.591-6.86,8.591s7.667-17.513,5.254-37.137-21.9-48.714-57.191-61.89c4.842,4.739,5.531,9.2,5.531,9.2s-5.351-9.925-23.161-9.379a17.163,17.163,0,0,0-9.18,3.688s2.031,3.009-2.768,4.233c-4.1,5.429,8.371,19.6,8.371,19.6s21.019,20.06,25.472,32.227,4.69,15.517,4.69,15.517,10.973,5.369,12.883,12.362c-5.51-4.424-9.281-4.56-9.281-4.56s7.694,21.549,4.854,33.119S341.4,765.987,341.4,765.987Z" transform="translate(-282.263 -619.497)" fill="#fff"/><path d="M317.777,650.273s67.319,39.29,46.649,114.483C393.518,680.613,317.777,650.273,317.777,650.273Z" transform="translate(-300.808 -636.274)" fill="#009fe3"/></g></g><g transform="translate(165.344 730.238)"><path d="M211.725,1071.687l-1.176-2.943H200.538l-1.176,3.006a10.319,10.319,0,0,1-1.176,2.375,1.915,1.915,0,0,1-1.6.616,2.4,2.4,0,0,1-1.663-.655,1.969,1.969,0,0,1-.722-1.488,3.165,3.165,0,0,1,.168-.992q.168-.512.554-1.423l6.3-15.224q.269-.656.647-1.575a7.817,7.817,0,0,1,.807-1.527,3.229,3.229,0,0,1,1.125-.984,3.591,3.591,0,0,1,1.722-.376,3.632,3.632,0,0,1,1.739.376,3.294,3.294,0,0,1,1.125.968,6.7,6.7,0,0,1,.722,1.271q.294.68.747,1.815l6.434,15.128a7.317,7.317,0,0,1,.756,2.511,2.035,2.035,0,0,1-.714,1.5,2.408,2.408,0,0,1-1.722.68,2.324,2.324,0,0,1-1.008-.2,2.049,2.049,0,0,1-.706-.543,4.926,4.926,0,0,1-.613-1.055C212.07,1072.468,211.882,1072.051,211.725,1071.687Zm-9.877-6.509h7.357l-3.713-9.675Z" transform="translate(-194.205 -1050.498)" fill="#fff"/><path d="M253.137,1067.218v.528a8.943,8.943,0,0,1,2.688-2.231,6.845,6.845,0,0,1,3.158-.711,7.593,7.593,0,0,1,3.9,1.039,7.29,7.29,0,0,1,2.814,3.039,10.18,10.18,0,0,1,1.033,4.733,11.054,11.054,0,0,1-.6,3.7,8.2,8.2,0,0,1-1.638,2.831,7.132,7.132,0,0,1-2.461,1.759,7.583,7.583,0,0,1-3.049.616,6.649,6.649,0,0,1-3.3-.751,9.279,9.279,0,0,1-2.545-2.207v6.557q0,2.879-2.2,2.878a1.8,1.8,0,0,1-1.713-.744,4.489,4.489,0,0,1-.42-2.167V1067.25a2.658,2.658,0,0,1,.571-1.863,2.026,2.026,0,0,1,1.562-.616,2.114,2.114,0,0,1,1.587.632A2.508,2.508,0,0,1,253.137,1067.218Zm8.987,6.35a7.23,7.23,0,0,0-.554-2.966,4.388,4.388,0,0,0-1.537-1.9,3.8,3.8,0,0,0-2.175-.664,4.167,4.167,0,0,0-3.2,1.423,6.011,6.011,0,0,0-1.3,4.19,5.873,5.873,0,0,0,1.293,4.054,4.131,4.131,0,0,0,3.208,1.448,3.815,3.815,0,0,0,2.117-.632,4.389,4.389,0,0,0,1.562-1.895A7.221,7.221,0,0,0,262.124,1073.568Z" transform="translate(-222.716 -1058.278)" fill="#fff"/><path d="M298.137,1067.218v.528a8.943,8.943,0,0,1,2.688-2.231,6.845,6.845,0,0,1,3.158-.711,7.593,7.593,0,0,1,3.9,1.039,7.291,7.291,0,0,1,2.814,3.039,10.18,10.18,0,0,1,1.033,4.733,11.042,11.042,0,0,1-.6,3.7,8.2,8.2,0,0,1-1.638,2.831,7.127,7.127,0,0,1-2.461,1.759,7.58,7.58,0,0,1-3.049.616,6.649,6.649,0,0,1-3.3-.751,9.279,9.279,0,0,1-2.545-2.207v6.557q0,2.879-2.2,2.878a1.8,1.8,0,0,1-1.713-.744,4.489,4.489,0,0,1-.42-2.167V1067.25a2.658,2.658,0,0,1,.571-1.863,2.026,2.026,0,0,1,1.562-.616,2.114,2.114,0,0,1,1.587.632A2.508,2.508,0,0,1,298.137,1067.218Zm8.987,6.35a7.231,7.231,0,0,0-.554-2.966,4.388,4.388,0,0,0-1.537-1.9,3.8,3.8,0,0,0-2.175-.664,4.167,4.167,0,0,0-3.2,1.423,6.011,6.011,0,0,0-1.3,4.19,5.873,5.873,0,0,0,1.293,4.054,4.131,4.131,0,0,0,3.208,1.448,3.815,3.815,0,0,0,2.117-.632,4.386,4.386,0,0,0,1.562-1.895A7.2,7.2,0,0,0,307.124,1073.568Z" transform="translate(-246.215 -1058.278)" fill="#fff"/><path d="M343.529,1076.218v3.646a2.726,2.726,0,0,1-.655,1.991,2.237,2.237,0,0,1-1.663.664,2.148,2.148,0,0,1-1.629-.672,2.777,2.777,0,0,1-.638-1.983V1067.71q0-2.943,2.234-2.943a1.9,1.9,0,0,1,1.646.688,3.655,3.655,0,0,1,.554,2.031,7.715,7.715,0,0,1,1.688-2.031,3.606,3.606,0,0,1,2.31-.688,6.147,6.147,0,0,1,2.805.688,2.06,2.06,0,0,1,1.361,1.823,1.693,1.693,0,0,1-.58,1.319,1.845,1.845,0,0,1-1.251.52,6.026,6.026,0,0,1-1.218-.3,5.93,5.93,0,0,0-1.7-.3,2.577,2.577,0,0,0-1.646.5,3.22,3.22,0,0,0-.991,1.5,10.014,10.014,0,0,0-.487,2.359Q343.529,1074.252,343.529,1076.218Z" transform="translate(-269.787 -1058.277)" fill="#fff"/><path d="M380.619,1074.682h-8.97a5.571,5.571,0,0,0,.63,2.623,4.2,4.2,0,0,0,1.629,1.711,4.469,4.469,0,0,0,2.242.576,5.761,5.761,0,0,0,1.5-.184,5,5,0,0,0,1.319-.576,10.027,10.027,0,0,0,1.176-.84q.538-.448,1.394-1.215a1.555,1.555,0,0,1,1.008-.288,1.715,1.715,0,0,1,1.142.368,1.283,1.283,0,0,1,.437,1.039,2.747,2.747,0,0,1-.487,1.383,5.607,5.607,0,0,1-1.47,1.519,8.522,8.522,0,0,1-2.469,1.207,11.129,11.129,0,0,1-3.418.48,9.411,9.411,0,0,1-6.87-2.4,8.686,8.686,0,0,1-2.453-6.509,10.384,10.384,0,0,1,.6-3.59,7.846,7.846,0,0,1,1.764-2.838,7.683,7.683,0,0,1,2.856-1.815,10.713,10.713,0,0,1,3.763-.632,9.279,9.279,0,0,1,4.611,1.079,7.28,7.28,0,0,1,2.881,2.791,7.065,7.065,0,0,1,.958,3.486,2.139,2.139,0,0,1-.991,2.135A6.45,6.45,0,0,1,380.619,1074.682Zm-8.97-2.479h8.315a5.157,5.157,0,0,0-1.268-3.35,3.9,3.9,0,0,0-2.9-1.111,3.76,3.76,0,0,0-2.814,1.128A5.453,5.453,0,0,0,371.649,1072.2Z" transform="translate(-284.418 -1058.241)" fill="#fff"/><path d="M415.56,1067.185v.528a7.918,7.918,0,0,1,2.646-2.231,7.339,7.339,0,0,1,3.3-.711,6.858,6.858,0,0,1,3.242.751,5.326,5.326,0,0,1,2.721,3.854,17.084,17.084,0,0,1,.134,2.367v8.124a2.8,2.8,0,0,1-.63,1.983,2.343,2.343,0,0,1-3.3-.016,2.787,2.787,0,0,1-.638-1.967v-7.276a6.971,6.971,0,0,0-.63-3.3,2.607,2.607,0,0,0-2.511-1.144,3.847,3.847,0,0,0-2.234.7,4.018,4.018,0,0,0-1.478,1.911,13.042,13.042,0,0,0-.336,3.646v5.469a2.747,2.747,0,0,1-.647,1.991,2.231,2.231,0,0,1-1.671.664,2.125,2.125,0,0,1-1.629-.688,2.788,2.788,0,0,1-.638-1.967v-12.617a2.658,2.658,0,0,1,.571-1.863,2.026,2.026,0,0,1,1.562-.616,2.2,2.2,0,0,1,1.092.272,1.985,1.985,0,0,1,.781.816A2.759,2.759,0,0,1,415.56,1067.185Z" transform="translate(-307.55 -1058.278)" fill="#fff"/><path d="M466.438,1072.247v-.432a11.443,11.443,0,0,1-1.822,1.639,6.977,6.977,0,0,1-1.948.959,7.665,7.665,0,0,1-2.293.328,6.969,6.969,0,0,1-5.476-2.559,8.494,8.494,0,0,1-1.554-2.894,11.81,11.81,0,0,1-.529-3.6,9.082,9.082,0,0,1,2.1-6.381,7.149,7.149,0,0,1,5.526-2.287,7.742,7.742,0,0,1,3.343.648,9.267,9.267,0,0,1,2.654,1.991v-6.445a3.147,3.147,0,0,1,.563-2.031,1.954,1.954,0,0,1,1.6-.688,2.036,2.036,0,0,1,1.6.632,2.722,2.722,0,0,1,.563,1.863v19.254a2.59,2.59,0,0,1-.6,1.871,2.08,2.08,0,0,1-1.562.624,2.048,2.048,0,0,1-1.554-.648A2.583,2.583,0,0,1,466.438,1072.247Zm-9.02-6.414a7.134,7.134,0,0,0,.58,3.023,4.261,4.261,0,0,0,1.587,1.879,4.063,4.063,0,0,0,2.2.632,4.055,4.055,0,0,0,3.8-2.439,7.118,7.118,0,0,0,.6-3.094,6.934,6.934,0,0,0-.6-3,4.558,4.558,0,0,0-1.613-1.919,3.987,3.987,0,0,0-2.226-.664,3.887,3.887,0,0,0-2.251.68,4.394,4.394,0,0,0-1.537,1.951A7.423,7.423,0,0,0,457.417,1065.833Z" transform="translate(-329.25 -1050.498)" fill="#fff"/><path d="M511.892,1074.682h-8.97a5.571,5.571,0,0,0,.63,2.623,4.2,4.2,0,0,0,1.629,1.711,4.469,4.469,0,0,0,2.242.576,5.761,5.761,0,0,0,1.5-.184,5,5,0,0,0,1.319-.576,10.034,10.034,0,0,0,1.176-.84q.538-.448,1.394-1.215a1.555,1.555,0,0,1,1.008-.288,1.715,1.715,0,0,1,1.142.368,1.283,1.283,0,0,1,.437,1.039,2.747,2.747,0,0,1-.487,1.383,5.607,5.607,0,0,1-1.47,1.519,8.52,8.52,0,0,1-2.469,1.207,11.13,11.13,0,0,1-3.418.48,9.411,9.411,0,0,1-6.87-2.4,8.686,8.686,0,0,1-2.453-6.509,10.383,10.383,0,0,1,.6-3.59,7.846,7.846,0,0,1,1.764-2.838,7.683,7.683,0,0,1,2.856-1.815,10.713,10.713,0,0,1,3.763-.632,9.279,9.279,0,0,1,4.611,1.079,7.28,7.28,0,0,1,2.881,2.791,7.065,7.065,0,0,1,.958,3.486,2.139,2.139,0,0,1-.991,2.135A6.449,6.449,0,0,1,511.892,1074.682Zm-8.97-2.479h8.315a5.158,5.158,0,0,0-1.268-3.35,3.9,3.9,0,0,0-2.9-1.111,3.76,3.76,0,0,0-2.814,1.128A5.453,5.453,0,0,0,502.922,1072.2Z" transform="translate(-352.968 -1058.241)" fill="#fff"/><path d="M547.33,1076.218v3.646a2.726,2.726,0,0,1-.655,1.991,2.237,2.237,0,0,1-1.663.664,2.147,2.147,0,0,1-1.629-.672,2.778,2.778,0,0,1-.638-1.983V1067.71q0-2.943,2.234-2.943a1.9,1.9,0,0,1,1.646.688,3.655,3.655,0,0,1,.554,2.031,7.714,7.714,0,0,1,1.688-2.031,3.606,3.606,0,0,1,2.31-.688,6.146,6.146,0,0,1,2.805.688,2.06,2.06,0,0,1,1.361,1.823,1.693,1.693,0,0,1-.58,1.319,1.845,1.845,0,0,1-1.251.52,6.027,6.027,0,0,1-1.218-.3,5.93,5.93,0,0,0-1.7-.3,2.577,2.577,0,0,0-1.646.5,3.22,3.22,0,0,0-.991,1.5,10.015,10.015,0,0,0-.487,2.359Q547.331,1074.252,547.33,1076.218Z" transform="translate(-376.211 -1058.277)" fill="#fff"/></g><path d="M368.588,486.014H298.565a5.618,5.618,0,0,1-5.734-5.458v-9.1A5.618,5.618,0,0,1,298.565,466h70.023a5.618,5.618,0,0,1,5.734,5.458v9.1A5.618,5.618,0,0,1,368.588,486.014Z" transform="translate(-80.363 -1.635)" fill="#333"/><path d="M141.564,612.807h0a2.575,2.575,0,0,1-2.628-2.5V587.611a2.575,2.575,0,0,1,2.628-2.5h0a2.575,2.575,0,0,1,2.628,2.5V610.3A2.575,2.575,0,0,1,141.564,612.807Z" transform="translate(0 -66.565)" fill="#333"/><path d="M141.564,688.02h0a2.575,2.575,0,0,1-2.628-2.5V663a2.575,2.575,0,0,1,2.628-2.5h0a2.575,2.575,0,0,1,2.628,2.5v22.516A2.575,2.575,0,0,1,141.564,688.02Z" transform="translate(0 -107.662)" fill="#333"/><path d="M606.611,651.078h0a2.575,2.575,0,0,1-2.628-2.5v-21.3a2.575,2.575,0,0,1,2.628-2.5h0a2.575,2.575,0,0,1,2.628,2.5v21.3A2.575,2.575,0,0,1,606.611,651.078Z" transform="translate(-242.845 -88.186)" fill="#333"/><path d="M369.634,487.549h-28.19a2.341,2.341,0,0,1-2.389-2.274h0A2.341,2.341,0,0,1,341.444,483h28.19a2.341,2.341,0,0,1,2.389,2.274h0A2.341,2.341,0,0,1,369.634,487.549Z" transform="translate(-104.501 -10.903)" fill="gray"/><ellipse cx="3.106" cy="2.729" rx="3.106" ry="2.729" transform="translate(274.583 471.643)" fill="gray"/><path d="M705.422,996.77H591.21c-13.7,0-24.8-10.571-24.8-23.611V730.17c0-13.04,11.1-23.611,24.8-23.611H705.422c13.7,0,24.8,10.571,24.8,23.611V973.158C730.223,986.2,719.119,996.77,705.422,996.77Z" transform="translate(-223.224 -132.77)" fill="#333"/><path d="M709.6,1032.757H599.7c-11.434,0-20.7-8.824-20.7-19.71V785H730.3v228.046C730.3,1023.932,721.036,1032.757,709.6,1032.757Z" transform="translate(-229.799 -175.53)" fill="#fff"/><path d="M564.443,817.18h-.3a1.75,1.75,0,0,1-1.786-1.7V798.427a1.75,1.75,0,0,1,1.786-1.7h.3a1.75,1.75,0,0,1,1.786,1.7V815.48A1.75,1.75,0,0,1,564.443,817.18Z" transform="translate(-221.107 -181.923)" fill="#333"/><path d="M564.443,872.72h-.3a1.75,1.75,0,0,1-1.786-1.7V854.1a1.75,1.75,0,0,1,1.786-1.7h.3a1.75,1.75,0,0,1,1.786,1.7v16.921A1.75,1.75,0,0,1,564.443,872.72Z" transform="translate(-221.107 -212.27)" fill="#333"/><path d="M907.29,845.44h-.3a1.75,1.75,0,0,1-1.786-1.7V827.715a1.75,1.75,0,0,1,1.786-1.7h.3a1.75,1.75,0,0,1,1.786,1.7V843.74A1.75,1.75,0,0,1,907.29,845.44Z" transform="translate(-400.14 -197.888)" fill="#333"/><path d="M730.3,749.888H579V740.3c0-10.885,9.269-19.71,20.7-19.71H709.6c11.434,0,20.7,8.824,20.7,19.71v9.589Z" transform="translate(-229.799 -140.418)" fill="#009fe3"/><path d="M730.547,723.553h-49.4a5.233,5.233,0,0,1-5.341-5.084v-4.611a5.233,5.233,0,0,1,5.341-5.084h49.4a5.233,5.233,0,0,1,5.34,5.084v4.611A5.233,5.233,0,0,1,730.547,723.553Z" transform="translate(-280.353 -133.977)" fill="#333"/><path d="M732.98,724.686H711.1a1.189,1.189,0,0,1-1.214-1.155v-1.048a1.189,1.189,0,0,1,1.214-1.155H732.98a1.189,1.189,0,0,1,1.214,1.155v1.048A1.189,1.189,0,0,1,732.98,724.686Z" transform="translate(-298.148 -140.82)" fill="gray"/><ellipse cx="2.29" cy="2.016" rx="2.29" ry="2.016" transform="translate(441.251 580.17)" fill="gray"/><g transform="translate(466.54 588.257)"><path d="M824.58,743.516v5.327h4.468l5.587,4.439v-14.2l-5.587,4.439Zm15.085,2.661a3.9,3.9,0,0,0-2.793-3.55v7.1a3.894,3.894,0,0,0,2.793-3.55Zm-2.793-7.812v1.865c3.24.8,5.587,3.107,5.587,5.947s-2.347,5.15-5.587,5.947v1.865c4.468-.8,7.817-3.993,7.817-7.812s-3.349-7.013-7.817-7.812Zm0,0" transform="translate(-824.58 -738.365)" fill="#fff"/></g><path d="M729.394,862.856H615.585a2.825,2.825,0,0,1-2.883-2.745V844.436a2.825,2.825,0,0,1,2.883-2.745h113.81a2.825,2.825,0,0,1,2.884,2.745v15.674A2.825,2.825,0,0,1,729.394,862.856Z" transform="translate(-247.398 -206.434)" fill="#fff" stroke="#999" stroke-miterlimit="10" stroke-width="0.5"/><g transform="translate(371.504 807.797)"><path d="M723.895,1246.507H635.447a9.57,9.57,0,0,1-9.768-9.3V1230.3a9.57,9.57,0,0,1,9.768-9.3h88.448a9.57,9.57,0,0,1,9.768,9.3v6.905A9.57,9.57,0,0,1,723.895,1246.507Z" transform="translate(-625.679 -1221.004)" fill="#ec407a"/></g><g transform="translate(397.082 714.678)"><ellipse cx="28.668" cy="27.293" rx="28.668" ry="27.293" fill="#008cc8"/><g transform="translate(17.77 11.22)"><path d="M732.3,1065.326c3.487,0,6.325-2.575,6.325-5.739V1046.7c0-3.164-2.838-5.739-6.325-5.739s-6.325,2.575-6.325,5.739v12.891c0,3.164,2.836,5.739,6.325,5.739Zm0,0" transform="translate(-721.399 -1040.957)" fill="#fff"/><path d="M737.466,1074.37h-1.26a.7.7,0,0,0-.733.665v2.338c0,4.089-3.666,7.416-8.173,7.416s-8.175-3.327-8.175-7.416v-2.338a.7.7,0,0,0-.733-.665h-1.258a.7.7,0,0,0-.734.665v2.338c0,4.89,4.189,9.2,9.536,9.809v1.656h-5.625a.7.7,0,0,0-.732.666v1.143a.7.7,0,0,0,.732.664h13.975a.7.7,0,0,0,.734-.664V1089.5a.7.7,0,0,0-.734-.666h-5.625v-1.656c5.348-.61,9.536-4.919,9.536-9.809v-2.338a.7.7,0,0,0-.731-.665Zm0,0" transform="translate(-716.4 -1059.171)" fill="#fff"/></g></g><g transform="translate(396.258 672.221)"><path d="M691.15,951.57a12.513,12.513,0,0,1-3.488,1.918,11.291,11.291,0,0,1-3.6.56,7.624,7.624,0,0,1-4.875-1.366,4.283,4.283,0,0,1-1.7-3.492,4.219,4.219,0,0,1,.643-2.278,4.965,4.965,0,0,1,1.685-1.654,8.465,8.465,0,0,1,2.347-.943,26.185,26.185,0,0,1,2.9-.432,33.324,33.324,0,0,0,5.817-.991q.018-.591.018-.751a2.96,2.96,0,0,0-.924-2.477,5.973,5.973,0,0,0-3.715-.975,6.372,6.372,0,0,0-3.4.711,4.27,4.27,0,0,0-1.622,2.517l-3.189-.383a6.6,6.6,0,0,1,1.432-2.917,6.367,6.367,0,0,1,2.881-1.71,14.416,14.416,0,0,1,4.367-.6,12.991,12.991,0,0,1,4,.511A5.388,5.388,0,0,1,693,938.1a4.312,4.312,0,0,1,1.015,1.958,14.31,14.31,0,0,1,.163,2.653v3.836a35.932,35.932,0,0,0,.208,5.075,5.928,5.928,0,0,0,.825,2.038H691.8A5.563,5.563,0,0,1,691.15,951.57Zm-.272-6.426a26.6,26.6,0,0,1-5.328,1.087,13.7,13.7,0,0,0-2.845.575,2.787,2.787,0,0,0-1.287.935,2.251,2.251,0,0,0-.453,1.366,2.339,2.339,0,0,0,.988,1.918,4.645,4.645,0,0,0,2.89.767,7.446,7.446,0,0,0,3.352-.727,4.779,4.779,0,0,0,2.156-1.99,6.223,6.223,0,0,0,.526-2.877Z" transform="translate(-677.487 -930.232)" fill="#4d4d4d"/><path d="M725.986,946.384H722.96V922.952h3.261v8.359a6.792,6.792,0,0,1,5.273-2.286,9,9,0,0,1,3.361.631,6.832,6.832,0,0,1,2.609,1.774,8.266,8.266,0,0,1,1.6,2.757,10.14,10.14,0,0,1,.58,3.453,8.982,8.982,0,0,1-2.446,6.745,8.116,8.116,0,0,1-5.871,2.382,6.382,6.382,0,0,1-5.346-2.51v2.127Zm-.036-8.615a7.935,7.935,0,0,0,.942,4.411,4.821,4.821,0,0,0,4.168,2.222,4.933,4.933,0,0,0,3.7-1.638,6.839,6.839,0,0,0,1.559-4.883,6.942,6.942,0,0,0-1.5-4.907,4.792,4.792,0,0,0-3.615-1.582,4.935,4.935,0,0,0-3.7,1.638A6.618,6.618,0,0,0,725.95,937.769Z" transform="translate(-701.233 -922.952)" fill="#4d4d4d"/><path d="M777.662,947.445l3.208.368a7.106,7.106,0,0,1-2.691,4.579,8.5,8.5,0,0,1-5.318,1.654,8.849,8.849,0,0,1-6.352-2.278,8.571,8.571,0,0,1-2.4-6.529,10.614,10.614,0,0,1,1.033-4.811,6.706,6.706,0,0,1,3.144-3.093,10.326,10.326,0,0,1,4.594-1.031,8.73,8.73,0,0,1,5.128,1.4,6.288,6.288,0,0,1,2.555,3.972l-3.171.432a4.261,4.261,0,0,0-4.385-3.437,5.383,5.383,0,0,0-4,1.558q-1.54,1.558-1.54,4.931,0,3.421,1.486,4.971a5.129,5.129,0,0,0,3.878,1.55,4.544,4.544,0,0,0,4.838-4.236Z" transform="translate(-722.72 -930.231)" fill="#4d4d4d"/></g><path d="M737.663,1237.887l-9.881,9.212a2.34,2.34,0,0,1-3.145,0l-5.035-4.7a1.976,1.976,0,0,1,0-2.933,2.339,2.339,0,0,1,3.145,0l3.462,3.229,8.308-7.746a2.34,2.34,0,0,1,3.145,0,1.978,1.978,0,0,1,0,2.933Zm-4.173,0" transform="translate(-302.881 -420.48)" fill="#fff"/></g></svg>