<svg xmlns="http://www.w3.org/2000/svg" width="250" height="250" viewBox="0 0 250 250"><defs><style>.a{fill:#fff;}.b{fill:#91dc5a;}.c{fill:#009fe3;}.d{fill:#ec407a;}.e{fill:#ff6f00;}</style></defs><g transform="translate(-846.333 -1505)"><circle class="a" cx="125" cy="125" r="125" transform="translate(846.333 1505)"/><g transform="translate(-29.667 -122)"><circle class="b" cx="100" cy="100" r="100" transform="translate(897 1652)"/><circle class="b" cx="82.5" cy="82.5" r="82.5" transform="translate(914 1669)"/><g transform="translate(932.336 1686.721)"><rect class="a" width="92.857" height="77.246" transform="translate(20.429 24.493)"/><path class="b" d="M65,0a65,65,0,1,0,65,65A65.073,65.073,0,0,0,65,0Zm37.324,54.021L80.278,76.066l-18.79,18.79a9.193,9.193,0,0,1-13,0L27.676,74.044a9.192,9.192,0,1,1,13-13L54.987,75.356,89.323,41.02a9.193,9.193,0,0,1,13,13Z"/></g><g transform="translate(1054.335 1661.721)"><rect class="a" width="35.714" height="29.71" transform="translate(7.857 9.42)"/><path class="c" d="M25,0A25,25,0,1,0,50,25,25.028,25.028,0,0,0,25,0ZM39.355,20.777l-8.479,8.479-7.227,7.227a3.536,3.536,0,0,1-5,0l-8-8a3.535,3.535,0,1,1,5-5l5.5,5.5L34.355,15.777a3.536,3.536,0,0,1,5,5Z"/></g><g transform="translate(914.335 1801.721)"><rect class="a" width="28.571" height="23.768" transform="translate(6.286 7.536)"/><path class="d" d="M20,0A20,20,0,1,0,40,20,20.023,20.023,0,0,0,20,0ZM31.484,16.622,24.7,23.405l-5.782,5.782a2.829,2.829,0,0,1-4,0l-6.4-6.4a2.828,2.828,0,1,1,4-4l4.4,4.4L27.484,12.622a2.829,2.829,0,0,1,4,4Z"/></g><g transform="translate(1057.335 1813.721)"><rect class="a" width="21.429" height="17.826" transform="translate(4.714 5.652)"/><path class="e" d="M15,0A15,15,0,1,0,30,15,15.017,15.017,0,0,0,15,0Zm8.613,12.466-5.087,5.087L14.19,21.89a2.121,2.121,0,0,1-3,0l-4.8-4.8a2.121,2.121,0,1,1,3-3l3.3,3.3,7.924-7.924a2.121,2.121,0,0,1,3,3Z"/></g></g></g></svg>