<svg xmlns="http://www.w3.org/2000/svg" width="49.315" height="40" viewBox="0 0 49.315 40"><path d="M53.616,42c18.63,0,28.767-15.342,28.767-28.767v-1.37a22.27,22.27,0,0,0,4.932-5.205A22.744,22.744,0,0,1,81.562,8.3a10.659,10.659,0,0,0,4.384-5.479,25.13,25.13,0,0,1-6.3,2.466A9.784,9.784,0,0,0,72.247,2,10.293,10.293,0,0,0,62.11,12.137a14.753,14.753,0,0,0,.274,2.192S46.493,9.945,41.562,3.644a10.492,10.492,0,0,0-1.37,5.205,10.885,10.885,0,0,0,4.384,8.493,9.236,9.236,0,0,1-4.658-1.37h0a10.013,10.013,0,0,0,8.219,9.863,8.446,8.446,0,0,1-2.74.274,4.662,4.662,0,0,1-1.918-.274,10.379,10.379,0,0,0,9.589,7.123,20.685,20.685,0,0,1-12.6,4.384A7.585,7.585,0,0,1,38,37.068,25.86,25.86,0,0,0,53.616,42" transform="translate(-38 -2)" fill="#fff" fill-rule="evenodd"/></svg>